# xmcd
#
# Track frame offsets:
#	150
#	18063
#	34766
#	52940
#	67611
#	81144
#	99547
#	111548
#	131918
#	149532
#	164440
#	185476
#	203476
#
# Disc length: 2934 seconds
#
# Revision: 0
# Processed by: cddbd v1.5.2PL0 Copyright (c) Steve Scherf et al.
# Submitted via: EasyCDDAExtractor 9.1.3.1
#
DISCID=ac0b740d
DTITLE=Carrie Underwood - Play On
DYEAR=2009
DGENRE=Country
TTITLE0=Cowboy Casanova
TTITLE1=Quitter
TTITLE2=Mama's Song
TTITLE3=Change
TTITLE4=Undo It
TTITLE5=Someday When I Stop Loving You
TTITLE6=Songs Like This
TTITLE7=Temporary Home
TTITLE8=This Time
TTITLE9=Look At Me
TTITLE10=Unapologize
TTITLE11=What Can I Say
TTITLE12=Play On
EXTD=
EXTT0=
EXTT1=
EXTT2=
EXTT3=
EXTT4=
EXTT5=
EXTT6=
EXTT7=
EXTT8=
EXTT9=
EXTT10=
EXTT11=
EXTT12=
PLAYORDER=
